<?xml version="1.0" standalone="no"?>
<!DOCTYPE svg PUBLIC "-//W3C//DTD SVG 20010904//EN"
 "http://www.w3.org/TR/2001/REC-SVG-20010904/DTD/svg10.dtd">
<svg version="1.0" xmlns="http://www.w3.org/2000/svg"
 width="334.000000pt" height="334.000000pt" viewBox="0 0 334.000000 334.000000"
 preserveAspectRatio="xMidYMid meet">
<metadata>
Created by potrace 1.11, written by Peter Selinger 2001-2013
</metadata>
<g transform="translate(0.000000,334.000000) scale(0.100000,-0.100000)"
fill="#000000" stroke="none">
<path d="M1645 3331 c-6 -5 -84 -52 -175 -104 -91 -52 -181 -104 -200 -115
-19 -11 -219 -127 -445 -257 -450 -261 -519 -300 -552 -317 -27 -13 -29 -24
-6 -32 9 -4 107 -59 217 -123 181 -106 200 -115 210 -99 6 10 33 48 61 85 244
327 665 502 1070 444 308 -43 574 -201 762 -452 32 -42 61 -80 65 -85 4 -5 25
2 47 17 22 15 43 27 46 27 3 0 31 16 61 35 30 19 56 35 59 35 4 0 155 87 205
118 19 12 21 17 10 21 -8 3 -46 25 -85 47 -81 48 -428 249 -495 286 -25 14
-138 79 -251 145 -114 66 -213 123 -220 127 -8 4 -23 12 -34 19 -120 72 -324
187 -331 187 -6 0 -14 -4 -19 -9z"/>
<path d="M222 1649 l3 -823 280 -163 c154 -90 287 -166 295 -170 8 -4 51 -28
95 -54 44 -26 97 -56 118 -68 57 -32 83 -47 362 -209 l260 -150 3 255 c1 141
1 257 0 259 -2 1 -30 4 -62 5 -190 9 -439 104 -604 231 -297 229 -457 565
-448 938 2 74 7 153 11 175 13 73 53 200 84 267 17 36 31 70 31 75 0 7 -103
68 -372 221 l-58 34 2 -823z"/>
<path d="M3035 2426 c-38 -24 -92 -55 -120 -70 -27 -16 -92 -53 -142 -83 l-93
-54 19 -37 c78 -152 113 -301 115 -482 0 -74 -2 -155 -6 -180 -57 -386 -297
-713 -643 -879 -134 -65 -239 -94 -390 -107 -38 -4 -72 -8 -74 -10 -8 -7 -3
-509 5 -507 5 1 135 74 289 164 154 89 289 167 300 173 36 20 360 207 375 217
15 9 290 167 345 198 17 10 47 28 68 40 l37 23 0 819 c0 450 -3 819 -7 818 -5
0 -39 -20 -78 -43z"/>
</g>
</svg>
