<?xml version="1.0" encoding="utf-8"?>
<!-- Generator: Adobe Illustrator 20.1.0, SVG Export Plug-In . SVG Version: 6.00 Build 0)  -->
<svg version="1.1" id="Layer_1" xmlns="http://www.w3.org/2000/svg" xmlns:xlink="http://www.w3.org/1999/xlink" x="0px" y="0px"
	 viewBox="0 0 49.9 65.9" style="enable-background:new 0 0 49.9 65.9;" xml:space="preserve">
<style type="text/css">
	.st0{fill:#4CBC90;}
	.st1{fill:#414042;}
	.st2{opacity:9.000000e-02;}
	.st3{fill:#F05252;}
	.st4{fill:#578DCA;}
</style>
<g>
	<path class="st0" d="M8,18.4c3.5-5.7,9.8-9.6,16.9-9.6s13.5,3.9,16.9,9.6l7.5-4.3L24.9,0L0.5,14.1L8,18.4z"/>
	<polygon class="st0" points="49.9,14.4 49.9,14.4 49.9,14.4 	"/>
	<polygon class="st0" points="0,14.4 0,14.4 0,14.4 	"/>
</g>
<g>
	<path class="st1" d="M12.8,22.1c0-0.2,0.2-0.4,0.4-0.4h8.5c0.2,0,0.4,0.2,0.4,0.4v1.7c0,0.2-0.2,0.4-0.4,0.4h-6.2v3.9h5.2
		c0.2,0,0.4,0.2,0.4,0.4v1.7c0,0.2-0.2,0.4-0.4,0.4h-5.2V36c0,0.2-0.2,0.4-0.4,0.4h-1.9c-0.2,0-0.4-0.2-0.4-0.4V22.1z"/>
	<path class="st1" d="M27.5,22c0-0.1,0.1-0.3,0.3-0.3h4.5c2.6,0,4.3,1.5,4.3,3.8c0,1.7-1,2.9-2.3,3.4c1.5,0.4,2.8,1.5,2.8,3.5
		c0,2.4-1.9,4-4.6,4h-4.7c-0.1,0-0.3-0.1-0.3-0.3V22z M32.6,35.6c2,0,3.5-1.3,3.5-3.1c0-1.9-1.6-3-3.6-3h-3.9v6.1H32.6z M32.4,28.5
		c2,0,3.1-1.2,3.1-3c0-1.8-1.3-2.9-3.3-2.9h-3.8v5.9H32.4z"/>
</g>
<polygon class="st2" points="44.9,64.1 44.9,64.1 44.9,64.1 24.9,63.4 5,64.1 5,64.1 5,64.1 5,64.1 5,64.1 5,65.3 24.9,65.9 
	44.9,65.3 44.9,64.1 44.9,64.1 "/>
<g>
	<polygon class="st3" points="24.9,57.6 24.9,57.6 24.9,57.6 	"/>
	<polygon class="st3" points="49.9,14.4 49.9,14.4 49.9,14.4 	"/>
	<path class="st3" d="M42.4,19.3c1.5,2.8,2.4,6,2.4,9.4c0,10.8-8.6,19.5-19.3,19.8v8.9l24.4-14.1l0-28.2L42.4,19.3z"/>
</g>
<g>
	<polygon class="st4" points="24.9,57.6 24.9,57.6 24.9,57.6 	"/>
	<polygon class="st4" points="0,14.4 0,14.4 0,14.4 	"/>
	<path class="st4" d="M24.4,48.4c-10.7-0.3-19.3-9-19.3-19.8c0-3.4,0.9-6.6,2.4-9.4L0,15l0,28.2l24.4,14.1V48.4z"/>
</g>
</svg>
